# xmcd
#
# Track frame offsets: 
#        300
#        19761
#        39115
#        64417
#        103880
#        125521
#        144110
#        168284
#        193710
#        216568
#
# Disc length: 3132 seconds
#
# Revision: 0
# Processed by: cddbd v1.5.2PL0 Copyright (c) Steve Scherf et al.
# Submitted via: ExactAudioCopy v1.0b1
#
DISCID=900c380a
DTITLE=Dana Gillespie - Live with The London Blues Band
DYEAR=2007
DGENRE=Blues
TTITLE0=Big Boy
TTITLE1=Your Mind Is On Vacation
TTITLE2=Ten Ton Blocks
TTITLE3=Big Daddy Blues
TTITLE4=Experienced
TTITLE5=Be My Sugar
TTITLE6=Up Your Sleeve
TTITLE7=Too Blue To Boogie
TTITLE8=Timeless
TTITLE9=Staying Power
EXTD=
EXTT0=
EXTT1=
EXTT2=
EXTT3=
EXTT4=
EXTT5=
EXTT6=
EXTT7=
EXTT8=
EXTT9=
PLAYORDER=
